<?xml version="1.0" encoding="utf-8"?>
<!-- Generator: Adobe Illustrator 21.0.1, SVG Export Plug-In . SVG Version: 6.00 Build 0)  -->
<svg version="1.1" id="Layer_1" xmlns="http://www.w3.org/2000/svg" xmlns:xlink="http://www.w3.org/1999/xlink" x="0px" y="0px"
	 viewBox="0 0 1375 500" style="enable-background:new 0 0 1375 500;" xml:space="preserve">
<style type="text/css">
	.st0{fill:url(#SVGID_1_);}
	.st1{fill:url(#SVGID_2_);}
	.st2{fill:url(#SVGID_3_);}
	.st3{fill:url(#SVGID_4_);}
	.st4{fill:url(#SVGID_5_);}
	.st5{fill:url(#SVGID_6_);}
	.st6{fill:url(#SVGID_7_);}
	.st7{fill:#6E6E6E;}
</style>
<linearGradient id="SVGID_1_" gradientUnits="userSpaceOnUse" x1="134.7098" y1="103.665" x2="1216.1558" y2="426.1489">
	<stop  offset="0" style="stop-color:#0074FF"/>
	<stop  offset="9.688021e-03" style="stop-color:#007AFF"/>
	<stop  offset="6.427611e-02" style="stop-color:#009AFF"/>
	<stop  offset="0.1237" style="stop-color:#00B5FF"/>
	<stop  offset="0.1887" style="stop-color:#00C9FF"/>
	<stop  offset="0.2623" style="stop-color:#00D7FF"/>
	<stop  offset="0.3515" style="stop-color:#00DFFF"/>
	<stop  offset="0.5" style="stop-color:#00E2FF"/>
	<stop  offset="0.568" style="stop-color:#02E3FB"/>
	<stop  offset="0.641" style="stop-color:#06E5EE"/>
	<stop  offset="0.7165" style="stop-color:#0EE8D8"/>
	<stop  offset="0.7937" style="stop-color:#19EDBA"/>
	<stop  offset="0.8721" style="stop-color:#26F393"/>
	<stop  offset="0.9504" style="stop-color:#37FA65"/>
	<stop  offset="1" style="stop-color:#43FF43"/>
</linearGradient>
<path class="st0" d="M611.3,153.4c-20.1-0.1-33.7,8.2-44.4,21.7c-8.8-11.8-22.8-21.8-41.5-21.7c-15-0.1-29.2,9.7-34.5,21.1v-11.6
	c0-1.8-0.7-3.5-2-4.8c-1.3-1.3-3-2-4.8-2h-19c-1.8,0-3.5,0.7-4.8,2c-1.3,1.3-2,3-2,4.8v47.6h-31.2c-1.8,0-3.5,0.7-4.8,2
	c-1.3,1.3-2,3-2,4.8v19c0,1.8,0.7,3.5,2,4.8c1.3,1.3,3,2,4.8,2h31.2v47.6c0,1.8,0.7,3.5,2,4.8c1.3,1.3,3,2,4.8,2h19
	c1.8,0,3.5-0.7,4.8-2c1.3-1.3,2-3,2-4.8v-72.8c0.3-20.6,12.6-33.4,28.8-33.5c8.6,0.1,14.6,2.8,18.9,7.7c4.3,4.9,7.2,12.7,7.2,23.6
	v75c0,1.8,0.7,3.5,2,4.8c1.3,1.3,3,2,4.8,2h18.8c1.8,0,3.5-0.7,4.8-2c1.3-1.3,2-3,2-4.8v-73.5c0.4-22.2,12.8-32.4,28.6-32.7
	c8.9,0.1,14.9,2.8,19.2,7.7c4.3,4.9,7.1,12.8,7.1,24.1v74.5c0,1.8,0.7,3.5,2,4.8c1.3,1.3,3,2,4.8,2h19c1.8,0,3.5-0.7,4.8-2
	c1.3-1.3,2-3,2-4.8v-79c0-17-4.9-31.7-14.5-42.1C641.4,158.9,627.4,153.3,611.3,153.4z"/>
<linearGradient id="SVGID_2_" gradientUnits="userSpaceOnUse" x1="119.1895" y1="155.7121" x2="1200.6355" y2="478.196">
	<stop  offset="0" style="stop-color:#0074FF"/>
	<stop  offset="9.688021e-03" style="stop-color:#007AFF"/>
	<stop  offset="6.427611e-02" style="stop-color:#009AFF"/>
	<stop  offset="0.1237" style="stop-color:#00B5FF"/>
	<stop  offset="0.1887" style="stop-color:#00C9FF"/>
	<stop  offset="0.2623" style="stop-color:#00D7FF"/>
	<stop  offset="0.3515" style="stop-color:#00DFFF"/>
	<stop  offset="0.5" style="stop-color:#00E2FF"/>
	<stop  offset="0.568" style="stop-color:#02E3FB"/>
	<stop  offset="0.641" style="stop-color:#06E5EE"/>
	<stop  offset="0.7165" style="stop-color:#0EE8D8"/>
	<stop  offset="0.7937" style="stop-color:#19EDBA"/>
	<stop  offset="0.8721" style="stop-color:#26F393"/>
	<stop  offset="0.9504" style="stop-color:#37FA65"/>
	<stop  offset="1" style="stop-color:#43FF43"/>
</linearGradient>
<path class="st1" d="M327.2,153.4c-14,0-30.8,6.4-42.1,21.6v-64.7c0-1.8-0.7-3.5-2-4.8s-3-2-4.8-2h-19c-1.8,0-3.5,0.7-4.8,2
	c-1.3,1.3-2,3-2,4.8v180.2c0,1.8,0.7,3.5,2,4.8c1.3,1.3,3,2,4.8,2h19c1.8,0,3.5-0.7,4.8-2c1.3-1.3,2-3,2-4.8v-9.9
	c11.1,12.6,24.2,19.4,42.1,19.3c17.2,0,34.2-6.9,46.8-19.5c12.7-12.6,20.9-31.1,20.9-53.6v-0.5c0-22.6-8.3-41.1-21-53.6
	C361.2,160.1,344.2,153.4,327.2,153.4z M361.9,227c-0.3,27.8-17,42-38.2,42.4c-20-0.1-39.4-16.6-39.4-42.6v-0.5
	c0-25.5,19.5-42.4,39.4-42.4c20.5,0.2,38,15.7,38.2,42.6V227z"/>
<linearGradient id="SVGID_3_" gradientUnits="userSpaceOnUse" x1="105.4683" y1="201.7262" x2="1186.9728" y2="524.2275">
	<stop  offset="0" style="stop-color:#0074FF"/>
	<stop  offset="9.688021e-03" style="stop-color:#007AFF"/>
	<stop  offset="6.427611e-02" style="stop-color:#009AFF"/>
	<stop  offset="0.1237" style="stop-color:#00B5FF"/>
	<stop  offset="0.1887" style="stop-color:#00C9FF"/>
	<stop  offset="0.2623" style="stop-color:#00D7FF"/>
	<stop  offset="0.3515" style="stop-color:#00DFFF"/>
	<stop  offset="0.5" style="stop-color:#00E2FF"/>
	<stop  offset="0.568" style="stop-color:#02E3FB"/>
	<stop  offset="0.641" style="stop-color:#06E5EE"/>
	<stop  offset="0.7165" style="stop-color:#0EE8D8"/>
	<stop  offset="0.7937" style="stop-color:#19EDBA"/>
	<stop  offset="0.8721" style="stop-color:#26F393"/>
	<stop  offset="0.9504" style="stop-color:#37FA65"/>
	<stop  offset="1" style="stop-color:#43FF43"/>
</linearGradient>
<path class="st2" d="M221,153.9c-0.8,0-1.6-0.1-2.5-0.1c-17.6,0-33.3,6.1-43.1,24.9v-15.9c0-1.8-0.7-3.5-2-4.8c-1.3-1.3-3-2-4.8-2
	h-19c-1.8,0-3.5,0.7-4.8,2c-1.3,1.3-2,3-2,4.8v127.6c0,1.8,0.7,3.5,2,4.8c1.3,1.3,3,2,4.8,2h19c1.8,0,3.5-0.7,4.8-2
	c1.3-1.3,2-3,2-4.8v-50.8c0.5-35.8,19.4-51.3,43.9-51.7h1.5c1.8,0,3.5-0.7,4.8-2c1.3-1.3,2-3,2-4.8v-20.5
	C227.5,157,224.6,154,221,153.9z"/>
<linearGradient id="SVGID_4_" gradientUnits="userSpaceOnUse" x1="175.8948" y1="-34.4484" x2="1257.3407" y2="288.0355">
	<stop  offset="0" style="stop-color:#0074FF"/>
	<stop  offset="9.688021e-03" style="stop-color:#007AFF"/>
	<stop  offset="6.427611e-02" style="stop-color:#009AFF"/>
	<stop  offset="0.1237" style="stop-color:#00B5FF"/>
	<stop  offset="0.1887" style="stop-color:#00C9FF"/>
	<stop  offset="0.2623" style="stop-color:#00D7FF"/>
	<stop  offset="0.3515" style="stop-color:#00DFFF"/>
	<stop  offset="0.5" style="stop-color:#00E2FF"/>
	<stop  offset="0.568" style="stop-color:#02E3FB"/>
	<stop  offset="0.641" style="stop-color:#06E5EE"/>
	<stop  offset="0.7165" style="stop-color:#0EE8D8"/>
	<stop  offset="0.7937" style="stop-color:#19EDBA"/>
	<stop  offset="0.8721" style="stop-color:#26F393"/>
	<stop  offset="0.9504" style="stop-color:#37FA65"/>
	<stop  offset="1" style="stop-color:#43FF43"/>
</linearGradient>
<path class="st3" d="M1060.9,156.1h-19c-1.8,0-3.5,0.7-4.8,2c-1.3,1.3-2,3-2,4.8v127.6c0,1.8,0.7,3.5,2,4.8c1.3,1.3,3,2,4.8,2h19
	c1.8,0,3.5-0.7,4.8-2c1.3-1.3,2-3,2-4.8V162.8c0-1.8-0.7-3.5-2-4.8C1064.3,156.8,1062.7,156.1,1060.9,156.1z"/>
<linearGradient id="SVGID_5_" gradientUnits="userSpaceOnUse" x1="185.0013" y1="-64.9868" x2="1266.4471" y2="257.4971">
	<stop  offset="0" style="stop-color:#0074FF"/>
	<stop  offset="9.688021e-03" style="stop-color:#007AFF"/>
	<stop  offset="6.427611e-02" style="stop-color:#009AFF"/>
	<stop  offset="0.1237" style="stop-color:#00B5FF"/>
	<stop  offset="0.1887" style="stop-color:#00C9FF"/>
	<stop  offset="0.2623" style="stop-color:#00D7FF"/>
	<stop  offset="0.3515" style="stop-color:#00DFFF"/>
	<stop  offset="0.5" style="stop-color:#00E2FF"/>
	<stop  offset="0.568" style="stop-color:#02E3FB"/>
	<stop  offset="0.641" style="stop-color:#06E5EE"/>
	<stop  offset="0.7165" style="stop-color:#0EE8D8"/>
	<stop  offset="0.7937" style="stop-color:#19EDBA"/>
	<stop  offset="0.8721" style="stop-color:#26F393"/>
	<stop  offset="0.9504" style="stop-color:#37FA65"/>
	<stop  offset="1" style="stop-color:#43FF43"/>
</linearGradient>
<path class="st4" d="M1213.7,170.1c-10.8-10.8-26.8-16.1-46-16c-19.8,0-34.8,4.8-49.2,11.5c-3.2,1.5-4.7,5.1-3.5,8.4l5.7,15.5
	c0.6,1.8,2,3.2,3.7,3.9c1.7,0.7,3.7,0.7,5.4-0.1c11.4-5.2,22-8.5,35.9-8.5c10.9,0,18.5,2.7,23.3,7c3.9,3.6,7.5,12.2,7.4,20.8
	c-5-2.4-18.7-7.5-32-7.8c-17.1-0.4-32.2,3.3-43.4,11.4c-11.3,8.1-18,21.1-17.9,36.6v0.5c-0.1,15.2,7.2,27.4,17.5,35.1
	c10.4,7.7,23.6,11.4,36.8,11.4c16.5,0.1,32.4-6.8,39.2-16.7v7.2c0,1.8,0.7,3.5,2,4.8c1.3,1.3,3,2,4.8,2h18.8c1.8,0,3.5-0.7,4.8-2
	c1.3-1.3,2-3,2-4.8v-78C1229,195,1224.1,180.5,1213.7,170.1z M1197,243.5c-0.4,8.6-3.6,14.4-9.9,19.4c-6.3,5-15.5,8.1-25.8,8.1
	c-7.4,0-14.1-2.1-18.5-5.4c-4.4-3.4-6.8-7.4-6.8-13.3v-0.5c0.1-5.6,2.2-9.6,6.9-13.1c4.8-3.4,12.7-5.9,23.6-5.9
	c12.3,0,22.3,1.8,30.5,3.9V243.5z"/>
<linearGradient id="SVGID_6_" gradientUnits="userSpaceOnUse" x1="152.2349" y1="44.8949" x2="1233.6808" y2="367.3787">
	<stop  offset="0" style="stop-color:#0074FF"/>
	<stop  offset="9.688021e-03" style="stop-color:#007AFF"/>
	<stop  offset="6.427611e-02" style="stop-color:#009AFF"/>
	<stop  offset="0.1237" style="stop-color:#00B5FF"/>
	<stop  offset="0.1887" style="stop-color:#00C9FF"/>
	<stop  offset="0.2623" style="stop-color:#00D7FF"/>
	<stop  offset="0.3515" style="stop-color:#00DFFF"/>
	<stop  offset="0.5" style="stop-color:#00E2FF"/>
	<stop  offset="0.568" style="stop-color:#02E3FB"/>
	<stop  offset="0.641" style="stop-color:#06E5EE"/>
	<stop  offset="0.7165" style="stop-color:#0EE8D8"/>
	<stop  offset="0.7937" style="stop-color:#19EDBA"/>
	<stop  offset="0.8721" style="stop-color:#26F393"/>
	<stop  offset="0.9504" style="stop-color:#37FA65"/>
	<stop  offset="1" style="stop-color:#43FF43"/>
</linearGradient>
<path class="st5" d="M760.9,153.4c-39.4,0.1-67.9,33.3-67.9,73.4c0,21.5,7.8,40,20.6,53c12.8,13,30.5,20.4,49.8,20.4
	c26,0.2,44.1-10.9,57.6-26.2c1.2-1.3,1.8-3.1,1.7-4.9c-0.1-1.8-0.9-3.5-2.2-4.7l-11.8-10.6c-2.7-2.4-6.9-2.3-9.4,0.4
	c-9.7,10-19.7,15.8-35.3,15.9c-17.2-0.2-31.9-10.1-36.8-29h93.1c3.5,0,6.4-2.7,6.7-6.2c0.3-3.2,0.3-5.5,0.3-7.2
	c0-20-5.8-38.5-17.1-52.2C798.7,161.8,781.6,153.3,760.9,153.4z M727.1,212.3c4.6-18,17.6-29.5,33.3-29.5
	c18.4,0.1,28.9,12,32.8,29.5H727.1z"/>
<linearGradient id="SVGID_7_" gradientUnits="userSpaceOnUse" x1="174.5623" y1="-29.98" x2="1256.0083" y2="292.5039">
	<stop  offset="0" style="stop-color:#0074FF"/>
	<stop  offset="9.688021e-03" style="stop-color:#007AFF"/>
	<stop  offset="6.427611e-02" style="stop-color:#009AFF"/>
	<stop  offset="0.1237" style="stop-color:#00B5FF"/>
	<stop  offset="0.1887" style="stop-color:#00C9FF"/>
	<stop  offset="0.2623" style="stop-color:#00D7FF"/>
	<stop  offset="0.3515" style="stop-color:#00DFFF"/>
	<stop  offset="0.5" style="stop-color:#00E2FF"/>
	<stop  offset="0.568" style="stop-color:#02E3FB"/>
	<stop  offset="0.641" style="stop-color:#06E5EE"/>
	<stop  offset="0.7165" style="stop-color:#0EE8D8"/>
	<stop  offset="0.7937" style="stop-color:#19EDBA"/>
	<stop  offset="0.8721" style="stop-color:#26F393"/>
	<stop  offset="0.9504" style="stop-color:#37FA65"/>
	<stop  offset="1" style="stop-color:#43FF43"/>
</linearGradient>
<path class="st6" d="M989.7,103.5h-19c-1.8,0-3.5,0.7-4.8,2c-1.3,1.3-2,3-2,4.8v62.8c-7.5-10-24.2-19.8-42.1-19.7
	c-17.1,0-34,6.9-46.7,19.5c-12.7,12.6-21,31.1-21,53.6v0.5c0,22.6,8.3,41.1,21,53.6c12.7,12.6,29.6,19.3,46.7,19.3
	c18,0.1,34.6-9.1,42.1-21.1v11.7c0,1.8,0.7,3.5,2,4.8c1.3,1.3,3,2,4.8,2h19c1.8,0,3.5-0.7,4.8-2c1.3-1.3,2-3,2-4.8V110.3
	c0-1.8-0.7-3.5-2-4.8S991.5,103.5,989.7,103.5z M964.7,226.7c0,25.8-19.5,42.6-39.4,42.6c-20.5-0.2-38-15.7-38.2-42.6v-0.5
	c0.3-27.8,17-42.1,38.2-42.4c20,0,39.4,16.6,39.4,42.4V226.7z"/>
<g>
	<g>
		<path class="st7" d="M461.7,375.5h8.1v-21.6h6.4v-6.6h-6.5v-1.1c0-2.1,1.1-3.1,2.9-3.1c1.4,0,2.5,0.3,3.7,0.7v-6.7
			c-1.5-0.5-3.2-0.8-5.7-0.8c-2.9,0-5.1,0.7-6.5,2.2c-1.5,1.5-2.3,3.8-2.3,6.9v1.8h-3.4v6.6h3.4V375.5z"/>
		<path class="st7" d="M599.2,359c0.6-3.7,2.8-6.1,6.2-6.1c3.4,0,5.5,2.4,6,6.1H599.2z M606.1,376.2c5.2,0,9-2,11.7-5.3l-4.6-4.1
			c-2.2,2.1-4.2,2.9-6.9,2.9c-3.6,0-6.2-1.9-7-5.6h19.8c0.1-0.7,0.1-1.5,0.1-2.1c0-8.1-4.4-15.5-13.9-15.5
			c-8.3,0-14.1,6.7-14.1,14.8v0.1C591.2,370.1,597.6,376.2,606.1,376.2z M570.6,375.5h8.1V365c0-6.8,3.3-10.1,8.7-10.1h0.4v-8.5
			c-4.8-0.2-7.4,2.3-9.1,6.3V347h-8.1V375.5z M546.5,376c4.1,0,6.5-2.2,8.4-4.6v4h8.1V347h-8.1v15.9c0,3.8-2,5.8-5.1,5.8
			c-3.1,0-4.9-2-4.9-5.8V347h-8.1v18.5C536.9,372,540.4,376,546.5,376z M524.3,376c2.7,0,4.7-0.6,6.4-1.6v-6.5c-1.2,0.6-2.5,1-4,1
			c-1.8,0-2.6-0.9-2.6-2.8v-12.2h6.7V347H524v-7.3H516v7.3h-3.4v6.9h3.4v13.5C516,374,519.3,376,524.3,376z M490.5,376
			c4.1,0,6.5-2.2,8.4-4.6v4h8.1V347h-8.1v15.9c0,3.8-2,5.8-5.1,5.8c-3.1,0-4.9-2-4.9-5.8V347h-8.1v18.5
			C480.9,372,484.4,376,490.5,376z"/>
		<path class="st7" d="M677.5,375.5h8.1V365c0-6.8,3.3-10.1,8.7-10.1h0.4v-8.5c-4.8-0.2-7.4,2.3-9.1,6.3V347h-8.1V375.5z
			 M656.6,369.2c-3.8,0-6.9-3.1-6.9-7.9v-0.1c0-4.7,3.1-7.9,6.9-7.9c3.8,0,7,3.1,7,7.9v0.1C663.6,366.1,660.4,369.2,656.6,369.2z
			 M641.7,384h8.1v-12.2c1.9,2.3,4.6,4.3,8.9,4.3c6.8,0,13-5.2,13-14.7v-0.1c0-9.5-6.3-14.7-13-14.7c-4.2,0-6.9,2-8.9,4.6V347h-8.1
			V384z"/>
		<path class="st7" d="M820.4,369.2c-4.5,0-7.5-3.7-7.5-7.9v-0.1c0-4.2,2.8-7.8,7.4-7.8c4.5,0,7.5,3.7,7.5,7.9v0.1
			C827.8,365.6,825,369.2,820.4,369.2z M820.3,376.2c8.9,0,15.5-6.6,15.5-14.8v-0.1c0-8.2-6.5-14.7-15.4-14.7
			c-8.9,0-15.5,6.6-15.5,14.8v0.1C804.9,369.6,811.5,376.2,820.3,376.2z M770.9,375.5h8.1v-21.6h6.4v-6.6h-6.5v-1.1
			c0-2.1,1.1-3.1,2.9-3.1c1.4,0,2.5,0.3,3.7,0.7v-6.7c-1.5-0.5-3.2-0.8-5.7-0.8c-2.9,0-5.1,0.7-6.5,2.2c-1.5,1.5-2.3,3.8-2.3,6.9
			v1.8h-3.4v6.6h3.4V375.5z M748.5,369.2c-4.5,0-7.5-3.7-7.5-7.9v-0.1c0-4.2,2.8-7.8,7.4-7.8c4.5,0,7.5,3.7,7.5,7.9v0.1
			C755.9,365.6,753.1,369.2,748.5,369.2z M748.4,376.2c8.9,0,15.5-6.6,15.5-14.8v-0.1c0-8.2-6.5-14.7-15.4-14.7
			c-8.9,0-15.5,6.6-15.5,14.8v0.1C733,369.6,739.5,376.2,748.4,376.2z M713.2,369.2c-4.5,0-7.5-3.7-7.5-7.9v-0.1
			c0-4.2,2.8-7.8,7.4-7.8c4.5,0,7.5,3.7,7.5,7.9v0.1C720.6,365.6,717.8,369.2,713.2,369.2z M713.1,376.2c8.9,0,15.5-6.6,15.5-14.8
			v-0.1c0-8.2-6.5-14.7-15.4-14.7c-8.9,0-15.5,6.6-15.5,14.8v0.1C697.7,369.6,704.3,376.2,713.1,376.2z"/>
		<path class="st7" d="M875.4,375.5h8.1v-38.8h-8.1V375.5z M841.8,375.5h8.1v-15.9c0-3.8,2-5.8,5.1-5.8c3.1,0,4.9,2,4.9,5.8v15.9
			h8.1v-18.5c0-6.5-3.6-10.6-9.7-10.6c-4.1,0-6.5,2.2-8.4,4.6v-4h-8.1V375.5z"/>
		<path class="st7" d="M999.6,376c6.2,0,10.9-2.9,10.9-9.2v-0.1c0-5.2-4.6-7.1-8.6-8.5c-3.1-1.1-5.8-1.8-5.8-3.4v-0.1c0-1.1,1-2,3-2
			c2.1,0,4.9,1,7.7,2.7l3.1-5.6c-3.1-2.1-7-3.3-10.6-3.3c-5.7,0-10.4,3.2-10.4,9v0.1c0,5.5,4.5,7.4,8.5,8.6c3.1,1,5.9,1.5,5.9,3.3
			v0.1c0,1.3-1.1,2.1-3.4,2.1c-2.7,0-5.9-1.2-9-3.4l-3.5,5.3C991.2,374.7,995.6,376,999.6,376z M947.1,359c0.6-3.7,2.8-6.1,6.2-6.1
			c3.4,0,5.5,2.4,6,6.1H947.1z M954,376.2c5.2,0,9-2,11.7-5.3l-4.6-4.1c-2.2,2.1-4.2,2.9-6.9,2.9c-3.6,0-6.2-1.9-7-5.6H967
			c0.1-0.7,0.1-1.5,0.1-2.1c0-8.1-4.4-15.5-13.9-15.5c-8.3,0-14.1,6.7-14.1,14.8v0.1C939.1,370.1,945.5,376.2,954,376.2z
			 M907.1,375.5h8.1v-15.9c0-3.8,2-5.8,5.1-5.8c3.1,0,4.9,2,4.9,5.8v15.9h8.1v-18.5c0-6.5-3.6-10.6-9.7-10.6c-4.1,0-6.5,2.2-8.4,4.6
			v-4h-8.1V375.5z M891.3,375.5h8.1V347h-8.1V375.5z M891.1,343.9h8.5v-7.2h-8.5V343.9z"/>
		<path class="st7" d="M1051.6,375.5h8.1v-38.8h-8.1V375.5z M1030.2,369.2c-4.5,0-7.5-3.7-7.5-7.9v-0.1c0-4.2,2.8-7.8,7.4-7.8
			c4.5,0,7.5,3.7,7.5,7.9v0.1C1037.6,365.6,1034.9,369.2,1030.2,369.2z M1030.1,376.2c8.9,0,15.5-6.6,15.5-14.8v-0.1
			c0-8.2-6.5-14.7-15.4-14.7c-8.9,0-15.5,6.6-15.5,14.8v0.1C1014.7,369.6,1021.3,376.2,1030.1,376.2z"/>
		<path class="st7" d="M1217.8,376c6.2,0,10.9-2.9,10.9-9.2v-0.1c0-5.2-4.6-7.1-8.6-8.5c-3.1-1.1-5.8-1.8-5.8-3.4v-0.1
			c0-1.1,1-2,3-2c2.1,0,4.9,1,7.7,2.7l3.1-5.6c-3.1-2.1-7-3.3-10.6-3.3c-5.7,0-10.4,3.2-10.4,9v0.1c0,5.5,4.5,7.4,8.5,8.6
			c3.1,1,5.9,1.5,5.9,3.3v0.1c0,1.3-1.1,2.1-3.4,2.1c-2.7,0-5.9-1.2-9-3.4l-3.5,5.3C1209.4,374.7,1213.8,376,1217.8,376z
			 M1174.4,375.5h8.1v-15.9c0-3.8,2-5.8,5.1-5.8c3.1,0,4.9,2,4.9,5.8v15.9h8.1v-18.5c0-6.5-3.6-10.6-9.7-10.6
			c-4.1,0-6.5,2.2-8.4,4.6v-4h-8.1V375.5z M1153,369.2c-4.5,0-7.5-3.7-7.5-7.9v-0.1c0-4.2,2.8-7.8,7.4-7.8c4.5,0,7.5,3.7,7.5,7.9
			v0.1C1160.4,365.6,1157.6,369.2,1153,369.2z M1152.9,376.2c8.9,0,15.5-6.6,15.5-14.8v-0.1c0-8.2-6.5-14.7-15.4-14.7
			c-8.9,0-15.5,6.6-15.5,14.8v0.1C1137.5,369.6,1144.1,376.2,1152.9,376.2z M1123.4,375.5h8.1V347h-8.1V375.5z M1123.2,343.9h8.5
			v-7.2h-8.5V343.9z M1110.3,376c2.7,0,4.7-0.6,6.4-1.6v-6.5c-1.2,0.6-2.5,1-4,1c-1.8,0-2.6-0.9-2.6-2.8v-12.2h6.7V347h-6.7v-7.3
			h-8.1v7.3h-3.4v6.9h3.4v13.5C1102,374,1105.3,376,1110.3,376z M1076.6,376c4.1,0,6.5-2.2,8.4-4.6v4h8.1V347h-8.1v15.9
			c0,3.8-2,5.8-5.1,5.8c-3.1,0-4.9-2-4.9-5.8V347h-8.1v18.5C1066.9,372,1070.5,376,1076.6,376z"/>
	</g>
</g>
</svg>
