<svg id="Layer_1" data-name="Layer 1" xmlns="http://www.w3.org/2000/svg" xmlns:xlink="http://www.w3.org/1999/xlink" viewBox="0 0 1375 500"><defs><style>.cls-1{fill:url(#linear-gradient);}.cls-2{fill:url(#linear-gradient-2);}.cls-3{fill:url(#linear-gradient-3);}.cls-4{fill:url(#linear-gradient-4);}.cls-5{fill:url(#linear-gradient-5);}.cls-6{fill:url(#linear-gradient-6);}.cls-7{fill:url(#linear-gradient-7);}.cls-8{fill:url(#linear-gradient-8);}.cls-9{fill:#fff;}</style><linearGradient id="linear-gradient" x1="-50.44" y1="24.39" x2="1404.65" y2="469.25" gradientUnits="userSpaceOnUse"><stop offset="0" stop-color="#43ff43"/><stop offset="0.09" stop-color="#37fa65"/><stop offset="0.2" stop-color="#26f393"/><stop offset="0.28" stop-color="#19edba"/><stop offset="0.34" stop-color="#0ee8d8"/><stop offset="0.4" stop-color="#06e5ee"/><stop offset="0.46" stop-color="#02e3fb"/><stop offset="0.53" stop-color="#00e2ff"/><stop offset="0.63" stop-color="#00dfff"/><stop offset="0.7" stop-color="#00d7ff"/><stop offset="0.77" stop-color="#00c9ff"/><stop offset="0.85" stop-color="#00b5ff"/><stop offset="0.92" stop-color="#009aff"/><stop offset="0.99" stop-color="#0074ff"/></linearGradient><linearGradient id="linear-gradient-2" x1="700.81" y1="291.79" x2="-872.61" y2="96.8" gradientTransform="matrix(1, 0, 0, -1, 0, 501)" gradientUnits="userSpaceOnUse"><stop offset="0" stop-color="#0074ff"/><stop offset="0.01" stop-color="#007aff"/><stop offset="0.06" stop-color="#009aff"/><stop offset="0.12" stop-color="#00b5ff"/><stop offset="0.19" stop-color="#00c9ff"/><stop offset="0.26" stop-color="#00d7ff"/><stop offset="0.35" stop-color="#00dfff"/><stop offset="0.5" stop-color="#00e2ff"/><stop offset="0.57" stop-color="#02e3fb"/><stop offset="0.64" stop-color="#06e5ee"/><stop offset="0.72" stop-color="#0ee8d8"/><stop offset="0.79" stop-color="#19edba"/><stop offset="0.87" stop-color="#26f393"/><stop offset="0.95" stop-color="#37fa65"/><stop offset="1" stop-color="#43ff43"/></linearGradient><linearGradient id="linear-gradient-3" x1="693.7" y1="349.14" x2="-879.72" y2="154.15" xlink:href="#linear-gradient-2"/><linearGradient id="linear-gradient-4" x1="694.69" y1="341.21" x2="-878.73" y2="146.22" xlink:href="#linear-gradient-2"/><linearGradient id="linear-gradient-5" x1="708.2" y1="232.21" x2="-865.23" y2="37.22" xlink:href="#linear-gradient-2"/><linearGradient id="linear-gradient-6" x1="710.18" y1="216.18" x2="-863.24" y2="21.19" xlink:href="#linear-gradient-2"/><linearGradient id="linear-gradient-7" x1="703.85" y1="267.3" x2="-869.57" y2="72.31" xlink:href="#linear-gradient-2"/><linearGradient id="linear-gradient-8" x1="703.91" y1="266.8" x2="-869.51" y2="71.81" xlink:href="#linear-gradient-2"/></defs><rect class="cls-1" width="1375" height="500"/><path class="cls-2" d="M611.8,152.9c-20.1-.1-33.7,8.2-44.4,21.7-8.8-11.8-22.8-21.8-41.5-21.7-15-.1-29.2,9.7-34.5,21.1V162.4a6.83,6.83,0,0,0-6.8-6.8h-19a6.83,6.83,0,0,0-6.8,6.8V210H427.6a6.83,6.83,0,0,0-6.8,6.8v19a6.83,6.83,0,0,0,6.8,6.8h31.2v47.6a6.83,6.83,0,0,0,6.8,6.8h19a6.83,6.83,0,0,0,6.8-6.8V217.4c.3-20.6,12.6-33.4,28.8-33.5,8.6.1,14.6,2.8,18.9,7.7s7.2,12.7,7.2,23.6v75a6.83,6.83,0,0,0,6.8,6.8h18.8a6.83,6.83,0,0,0,6.8-6.8V216.7c.4-22.2,12.8-32.4,28.6-32.7,8.9.1,14.9,2.8,19.2,7.7s7.1,12.8,7.1,24.1v74.5a6.83,6.83,0,0,0,6.8,6.8h19a6.83,6.83,0,0,0,6.8-6.8v-79c0-17-4.9-31.7-14.5-42.1C641.9,158.4,627.9,152.8,611.8,152.9Z"/><path class="cls-3" d="M327.7,152.9a53.11,53.11,0,0,0-42.1,21.6V109.8a6.83,6.83,0,0,0-6.8-6.8h-19a6.83,6.83,0,0,0-6.8,6.8V290a6.83,6.83,0,0,0,6.8,6.8h19a6.83,6.83,0,0,0,6.8-6.8v-9.9c11.1,12.6,24.2,19.4,42.1,19.3a66.45,66.45,0,0,0,46.8-19.5c12.7-12.6,20.9-31.1,20.9-53.6v-.5c0-22.6-8.3-41.1-21-53.6A66.54,66.54,0,0,0,327.7,152.9Zm34.7,73.6c-.3,27.8-17,42-38.2,42.4-20-.1-39.4-16.6-39.4-42.6v-.5c0-25.5,19.5-42.4,39.4-42.4,20.5.2,38,15.7,38.2,42.6Z"/><path class="cls-4" d="M221.5,153.4c-.8,0-1.6-.1-2.5-.1-17.6,0-33.3,6.1-43.1,24.9V162.3a6.83,6.83,0,0,0-6.8-6.8h-19a6.83,6.83,0,0,0-6.8,6.8V289.9a6.83,6.83,0,0,0,6.8,6.8h19a6.83,6.83,0,0,0,6.8-6.8V239.1c.5-35.8,19.4-51.3,43.9-51.7h1.5a6.83,6.83,0,0,0,6.8-6.8V160.1A6.88,6.88,0,0,0,221.5,153.4Z"/><path class="cls-5" d="M1061.4,155.6h-19a6.83,6.83,0,0,0-6.8,6.8V290a6.83,6.83,0,0,0,6.8,6.8h19a6.83,6.83,0,0,0,6.8-6.8V162.3a6.73,6.73,0,0,0-2-4.8A7.27,7.27,0,0,0,1061.4,155.6Z"/><path class="cls-6" d="M1214.2,169.6c-10.8-10.8-26.8-16.1-46-16-19.8,0-34.8,4.8-49.2,11.5a6.7,6.7,0,0,0-3.5,8.4l5.7,15.5a6.49,6.49,0,0,0,3.7,3.9,6.76,6.76,0,0,0,5.4-.1c11.4-5.2,22-8.5,35.9-8.5,10.9,0,18.5,2.7,23.3,7,3.9,3.6,7.5,12.2,7.4,20.8-5-2.4-18.7-7.5-32-7.8-17.1-.4-32.2,3.3-43.4,11.4s-18,21.1-17.9,36.6v.5a42.84,42.84,0,0,0,17.5,35.1c10.4,7.7,23.6,11.4,36.8,11.4,16.5.1,32.4-6.8,39.2-16.7v7.2a6.83,6.83,0,0,0,6.8,6.8h18.8a6.83,6.83,0,0,0,6.8-6.8v-78C1229.5,194.5,1224.6,180,1214.2,169.6ZM1197.5,243c-.4,8.6-3.6,14.4-9.9,19.4s-15.5,8.1-25.8,8.1c-7.4,0-14.1-2.1-18.5-5.4s-6.8-7.4-6.8-13.3v-.5c.1-5.6,2.2-9.6,6.9-13.1s12.7-5.9,23.6-5.9a120.53,120.53,0,0,1,30.5,3.9V243Z"/><path class="cls-7" d="M761.4,152.9c-39.4.1-67.9,33.3-67.9,73.4,0,21.5,7.8,40,20.6,53a69.31,69.31,0,0,0,49.8,20.4c26,.2,44.1-10.9,57.6-26.2a6.7,6.7,0,0,0,1.7-4.9,6.94,6.94,0,0,0-2.2-4.7l-11.8-10.6a6.74,6.74,0,0,0-9.4.4c-9.7,10-19.7,15.8-35.3,15.9-17.2-.2-31.9-10.1-36.8-29h93.1a6.75,6.75,0,0,0,6.7-6.2,71.19,71.19,0,0,0,.3-7.2c0-20-5.8-38.5-17.1-52.2C799.2,161.3,782.1,152.8,761.4,152.9Zm-33.8,58.9c4.6-18,17.6-29.5,33.3-29.5,18.4.1,28.9,12,32.8,29.5Z"/><path class="cls-8" d="M990.2,103h-19a6.83,6.83,0,0,0-6.8,6.8v62.8c-7.5-10-24.2-19.8-42.1-19.7a66.57,66.57,0,0,0-46.7,19.5c-12.7,12.6-21,31.1-21,53.6v.5c0,22.6,8.3,41.1,21,53.6a66.36,66.36,0,0,0,46.7,19.3c18,.1,34.6-9.1,42.1-21.1V290a6.83,6.83,0,0,0,6.8,6.8h19A6.83,6.83,0,0,0,997,290V109.8a6.83,6.83,0,0,0-6.8-6.8Zm-25,123.2c0,25.8-19.5,42.6-39.4,42.6-20.5-.2-38-15.7-38.2-42.6v-.5c.3-27.8,17-42.1,38.2-42.4,20,0,39.4,16.6,39.4,42.4Z"/><path class="cls-9" d="M462.2,375h8.1V353.4h6.4v-6.6h-6.5v-1.1c0-2.1,1.1-3.1,2.9-3.1a11.06,11.06,0,0,1,3.7.7v-6.7a17.29,17.29,0,0,0-5.7-.8c-2.9,0-5.1.7-6.5,2.2s-2.3,3.8-2.3,6.9v1.8h-3.4v6.6h3.4V375Z"/><path class="cls-9" d="M599.7,358.5c.6-3.7,2.8-6.1,6.2-6.1s5.5,2.4,6,6.1Zm6.9,17.2a14.34,14.34,0,0,0,11.7-5.3l-4.6-4.1a9.16,9.16,0,0,1-6.9,2.9,6.64,6.64,0,0,1-7-5.6h19.8a15.48,15.48,0,0,0,.1-2.1c0-8.1-4.4-15.5-13.9-15.5-8.3,0-14.1,6.7-14.1,14.8v.1C591.7,369.6,598.1,375.7,606.6,375.7Zm-35.5-.7h8.1V364.5c0-6.8,3.3-10.1,8.7-10.1h.4v-8.5c-4.8-.2-7.4,2.3-9.1,6.3v-5.7h-8.1V375Zm-24.1.5c4.1,0,6.5-2.2,8.4-4.6v4h8.1V346.5h-8.1v15.9c0,3.8-2,5.8-5.1,5.8s-4.9-2-4.9-5.8V346.5h-8.1V365C537.4,371.5,540.9,375.5,547,375.5Zm-22.2,0a12.11,12.11,0,0,0,6.4-1.6v-6.5a8.77,8.77,0,0,1-4,1c-1.8,0-2.6-.9-2.6-2.8V353.4h6.7v-6.9h-6.8v-7.3h-8v7.3h-3.4v6.9h3.4v13.5C516.5,373.5,519.8,375.5,524.8,375.5Zm-33.8,0c4.1,0,6.5-2.2,8.4-4.6v4h8.1V346.5h-8.1v15.9c0,3.8-2,5.8-5.1,5.8s-4.9-2-4.9-5.8V346.5h-8.1V365C481.4,371.5,484.9,375.5,491,375.5Z"/><path class="cls-9" d="M678,375h8.1V364.5c0-6.8,3.3-10.1,8.7-10.1h.4v-8.5c-4.8-.2-7.4,2.3-9.1,6.3v-5.7H678V375Zm-20.9-6.3c-3.8,0-6.9-3.1-6.9-7.9v-.1c0-4.7,3.1-7.9,6.9-7.9s7,3.1,7,7.9v.1C664.1,365.6,660.9,368.7,657.1,368.7Zm-14.9,14.8h8.1V371.3a11,11,0,0,0,8.9,4.3c6.8,0,13-5.2,13-14.7v-.1c0-9.5-6.3-14.7-13-14.7a10.67,10.67,0,0,0-8.9,4.6v-4.2h-8.1Z"/><path class="cls-9" d="M820.9,368.7c-4.5,0-7.5-3.7-7.5-7.9v-.1c0-4.2,2.8-7.8,7.4-7.8s7.5,3.7,7.5,7.9v.1C828.3,365.1,825.5,368.7,820.9,368.7Zm-.1,7c8.9,0,15.5-6.6,15.5-14.8v-.1c0-8.2-6.5-14.7-15.4-14.7s-15.5,6.6-15.5,14.8v.1C805.4,369.1,812,375.7,820.8,375.7Zm-49.4-.7h8.1V353.4h6.4v-6.6h-6.5v-1.1c0-2.1,1.1-3.1,2.9-3.1a11.06,11.06,0,0,1,3.7.7v-6.7a17.29,17.29,0,0,0-5.7-.8c-2.9,0-5.1.7-6.5,2.2s-2.3,3.8-2.3,6.9v1.8h-3.4v6.6h3.4V375ZM749,368.7c-4.5,0-7.5-3.7-7.5-7.9v-.1c0-4.2,2.8-7.8,7.4-7.8s7.5,3.7,7.5,7.9v.1C756.4,365.1,753.6,368.7,749,368.7Zm-.1,7c8.9,0,15.5-6.6,15.5-14.8v-.1c0-8.2-6.5-14.7-15.4-14.7s-15.5,6.6-15.5,14.8v.1C733.5,369.1,740,375.7,748.9,375.7Zm-35.2-7c-4.5,0-7.5-3.7-7.5-7.9v-.1c0-4.2,2.8-7.8,7.4-7.8s7.5,3.7,7.5,7.9v.1C721.1,365.1,718.3,368.7,713.7,368.7Zm-.1,7c8.9,0,15.5-6.6,15.5-14.8v-.1c0-8.2-6.5-14.7-15.4-14.7s-15.5,6.6-15.5,14.8v.1C698.2,369.1,704.8,375.7,713.6,375.7Z"/><path class="cls-9" d="M875.9,375H884V336.2h-8.1Zm-33.6,0h8.1V359.1c0-3.8,2-5.8,5.1-5.8s4.9,2,4.9,5.8V375h8.1V356.5c0-6.5-3.6-10.6-9.7-10.6-4.1,0-6.5,2.2-8.4,4.6v-4h-8.1V375Z"/><path class="cls-9" d="M1000.1,375.5c6.2,0,10.9-2.9,10.9-9.2v-.1c0-5.2-4.6-7.1-8.6-8.5-3.1-1.1-5.8-1.8-5.8-3.4v-.1c0-1.1,1-2,3-2a16.23,16.23,0,0,1,7.7,2.7l3.1-5.6a19.48,19.48,0,0,0-10.6-3.3c-5.7,0-10.4,3.2-10.4,9v.1c0,5.5,4.5,7.4,8.5,8.6,3.1,1,5.9,1.5,5.9,3.3v.1c0,1.3-1.1,2.1-3.4,2.1a16.33,16.33,0,0,1-9-3.4l-3.5,5.3A19.3,19.3,0,0,0,1000.1,375.5Zm-52.5-17c.6-3.7,2.8-6.1,6.2-6.1s5.5,2.4,6,6.1Zm6.9,17.2a14.34,14.34,0,0,0,11.7-5.3l-4.6-4.1a9.16,9.16,0,0,1-6.9,2.9,6.64,6.64,0,0,1-7-5.6h19.8a15.48,15.48,0,0,0,.1-2.1c0-8.1-4.4-15.5-13.9-15.5-8.3,0-14.1,6.7-14.1,14.8v.1C939.6,369.6,946,375.7,954.5,375.7Zm-46.9-.7h8.1V359.1c0-3.8,2-5.8,5.1-5.8s4.9,2,4.9,5.8V375h8.1V356.5c0-6.5-3.6-10.6-9.7-10.6-4.1,0-6.5,2.2-8.4,4.6v-4h-8.1V375Zm-15.8,0h8.1V346.5h-8.1Zm-.2-31.6h8.5v-7.2h-8.5Z"/><path class="cls-9" d="M1052.1,375h8.1V336.2h-8.1Zm-21.4-6.3c-4.5,0-7.5-3.7-7.5-7.9v-.1c0-4.2,2.8-7.8,7.4-7.8s7.5,3.7,7.5,7.9v.1C1038.1,365.1,1035.4,368.7,1030.7,368.7Zm-.1,7c8.9,0,15.5-6.6,15.5-14.8v-.1c0-8.2-6.5-14.7-15.4-14.7s-15.5,6.6-15.5,14.8v.1C1015.2,369.1,1021.8,375.7,1030.6,375.7Z"/><path class="cls-9" d="M1218.3,375.5c6.2,0,10.9-2.9,10.9-9.2v-.1c0-5.2-4.6-7.1-8.6-8.5-3.1-1.1-5.8-1.8-5.8-3.4v-.1c0-1.1,1-2,3-2a16.23,16.23,0,0,1,7.7,2.7l3.1-5.6A19.48,19.48,0,0,0,1218,346c-5.7,0-10.4,3.2-10.4,9v.1c0,5.5,4.5,7.4,8.5,8.6,3.1,1,5.9,1.5,5.9,3.3v.1c0,1.3-1.1,2.1-3.4,2.1a16.33,16.33,0,0,1-9-3.4l-3.5,5.3A19.3,19.3,0,0,0,1218.3,375.5Zm-43.4-.5h8.1V359.1c0-3.8,2-5.8,5.1-5.8s4.9,2,4.9,5.8V375h8.1V356.5c0-6.5-3.6-10.6-9.7-10.6-4.1,0-6.5,2.2-8.4,4.6v-4h-8.1Zm-21.4-6.3c-4.5,0-7.5-3.7-7.5-7.9v-.1c0-4.2,2.8-7.8,7.4-7.8s7.5,3.7,7.5,7.9v.1C1160.9,365.1,1158.1,368.7,1153.5,368.7Zm-.1,7c8.9,0,15.5-6.6,15.5-14.8v-.1c0-8.2-6.5-14.7-15.4-14.7s-15.5,6.6-15.5,14.8v.1C1138,369.1,1144.6,375.7,1153.4,375.7Zm-29.5-.7h8.1V346.5h-8.1Zm-.2-31.6h8.5v-7.2h-8.5Zm-12.9,32.1a12.11,12.11,0,0,0,6.4-1.6v-6.5a8.77,8.77,0,0,1-4,1c-1.8,0-2.6-.9-2.6-2.8V353.4h6.7v-6.9h-6.7v-7.3h-8.1v7.3h-3.4v6.9h3.4v13.5C1102.5,373.5,1105.8,375.5,1110.8,375.5Zm-33.7,0c4.1,0,6.5-2.2,8.4-4.6v4h8.1V346.5h-8.1v15.9c0,3.8-2,5.8-5.1,5.8s-4.9-2-4.9-5.8V346.5h-8.1V365C1067.4,371.5,1071,375.5,1077.1,375.5Z"/></svg>