<svg id="Layer_1" data-name="Layer 1" xmlns="http://www.w3.org/2000/svg" xmlns:xlink="http://www.w3.org/1999/xlink" viewBox="0 0 252.1 196.4"><defs><style>.cls-1{fill:url(#linear-gradient);}.cls-2{fill:url(#linear-gradient-2);}</style><linearGradient id="linear-gradient" x1="-23.63" y1="242.72" x2="1057.82" y2="-79.76" gradientTransform="matrix(1, 0, 0, -1, 0, 295)" gradientUnits="userSpaceOnUse"><stop offset="0" stop-color="#0074ff"/><stop offset="0.01" stop-color="#007aff"/><stop offset="0.06" stop-color="#009aff"/><stop offset="0.12" stop-color="#00b5ff"/><stop offset="0.19" stop-color="#00c9ff"/><stop offset="0.26" stop-color="#00d7ff"/><stop offset="0.35" stop-color="#00dfff"/><stop offset="0.5" stop-color="#00e2ff"/><stop offset="0.57" stop-color="#02e3fb"/><stop offset="0.64" stop-color="#06e5ee"/><stop offset="0.72" stop-color="#0ee8d8"/><stop offset="0.79" stop-color="#19edba"/><stop offset="0.87" stop-color="#26f393"/><stop offset="0.95" stop-color="#37fa65"/><stop offset="1" stop-color="#43ff43"/></linearGradient><linearGradient id="linear-gradient-2" x1="-37.35" y1="196.73" x2="1044.16" y2="-125.77" xlink:href="#linear-gradient"/></defs><path class="cls-1" d="M184.4,49.9a53.11,53.11,0,0,0-42.1,21.6V6.8A6.83,6.83,0,0,0,135.5,0h-19a6.83,6.83,0,0,0-6.8,6.8V187a6.83,6.83,0,0,0,6.8,6.8h19a6.83,6.83,0,0,0,6.8-6.8v-9.9c11.1,12.6,24.2,19.4,42.1,19.3a66.45,66.45,0,0,0,46.8-19.5c12.7-12.6,20.9-31.1,20.9-53.6v-.5c0-22.6-8.3-41.1-21-53.6A66.54,66.54,0,0,0,184.4,49.9Zm34.7,73.6c-.3,27.8-17,42-38.2,42.4-20-.1-39.4-16.6-39.4-42.6v-.5c0-25.5,19.5-42.4,39.4-42.4,20.5.2,38,15.7,38.2,42.6Z"/><path class="cls-2" d="M78.2,50.4c-.8,0-1.6-.1-2.5-.1-17.6,0-33.3,6.1-43.1,24.9V59.3a6.83,6.83,0,0,0-6.8-6.8H6.8A6.83,6.83,0,0,0,0,59.3V186.9a6.83,6.83,0,0,0,6.8,6.8h19a6.83,6.83,0,0,0,6.8-6.8V136.1c.5-35.8,19.4-51.3,43.9-51.7H78a6.83,6.83,0,0,0,6.8-6.8V57.1A6.88,6.88,0,0,0,78.2,50.4Z"/></svg>